<svg width="257" height="36" viewBox="0 0 257 36" fill="none" xmlns="http://www.w3.org/2000/svg">
<path d="M0 0H12V12H0V0Z" fill="#FEE761"/>
<path d="M0 24H12V36H0V24Z" fill="#FEE761"/>
<path d="M12 24H24V36H12V24Z" fill="#FEE761"/>
<path d="M0 12H12V24H0V12Z" fill="#FEE761"/>
<path d="M24 0H36V12H24V0Z" fill="#FEE761"/>
<path d="M12 12H24V24H12V12Z" fill="#FA922A"/>
<path d="M24 12H36V24H24V12Z" fill="#FA922A"/>
<path d="M24 24H36V36H24V24Z" fill="#FA922A"/>
<path d="M220.688 21.6V0H256.688V7.2H227.887V14.4H256.688V36H220.688V28.8H249.488V21.6H220.688Z" fill="white"/>
<path d="M177.516 36V0H206.316V7.2H213.516V21.6H206.316V28.8H213.516V36H206.316V28.8H199.116V21.6H184.716V36H177.516ZM206.316 7.2H184.716V14.4H206.316V7.2Z" fill="white"/>
<path d="M163.144 36V21.6H141.544V36H134.344V0H170.344V36H163.144ZM141.544 7.2V14.4H163.144V7.2H141.544Z" fill="white"/>
<path d="M98.3719 14.4V36H91.1719V0H98.3719V7.2H105.572V14.4H112.772V21.6H119.972V0H127.172V36H119.972V28.8H112.772V21.6H105.572V14.4H98.3719Z" fill="white"/>
<path d="M48 36V0H84V7.2H55.2V28.8H76.8V21.6H62.4V14.4H84V36H48Z" fill="white"/>
</svg>
